<?xml version="1.0" encoding="UTF-8" standalone="no"?>
<!-- Created with Inkscape (http://www.inkscape.org/) -->

<svg
   xmlns:dc="http://purl.org/dc/elements/1.1/"
   xmlns:cc="http://creativecommons.org/ns#"
   xmlns:rdf="http://www.w3.org/1999/02/22-rdf-syntax-ns#"
   xmlns:svg="http://www.w3.org/2000/svg"
   xmlns="http://www.w3.org/2000/svg"
   xmlns:sodipodi="http://sodipodi.sourceforge.net/DTD/sodipodi-0.dtd"
   xmlns:inkscape="http://www.inkscape.org/namespaces/inkscape"
   width="210mm"
   height="297mm"
   viewBox="0 0 744.09448819 1052.3622047"
   id="svg2"
   version="1.1"
   inkscape:version="0.91 r13725"
   sodipodi:docname="hangman_base.svg"
   inkscape:export-filename="C:\Users\Robert\Documents\Diverse\bilder\Inkscape\hangman_base_8.png"
   inkscape:export-xdpi="180"
   inkscape:export-ydpi="180">
  <defs
     id="defs4" />
  <sodipodi:namedview
     id="base"
     pagecolor="#ffffff"
     bordercolor="#666666"
     borderopacity="1.0"
     inkscape:pageopacity="0.0"
     inkscape:pageshadow="2"
     inkscape:zoom="0.5"
     inkscape:cx="878.9007"
     inkscape:cy="667.71818"
     inkscape:document-units="px"
     inkscape:current-layer="layer11"
     showgrid="false"
     inkscape:window-width="1920"
     inkscape:window-height="1017"
     inkscape:window-x="-8"
     inkscape:window-y="-8"
     inkscape:window-maximized="1" />
  <metadata
     id="metadata7">
    <rdf:RDF>
      <cc:Work
         rdf:about="">
        <dc:format>image/svg+xml</dc:format>
        <dc:type
           rdf:resource="http://purl.org/dc/dcmitype/StillImage" />
        <dc:title />
      </cc:Work>
    </rdf:RDF>
  </metadata>
  <g
     inkscape:groupmode="layer"
     id="layer2"
     inkscape:label="pin"
     style="display:inline"
     sodipodi:insensitive="true">
    <path
       style="display:inline;fill:none;fill-rule:evenodd;stroke:#002814;stroke-width:4.50200748;stroke-linecap:butt;stroke-linejoin:miter;stroke-miterlimit:4;stroke-dasharray:none;stroke-opacity:1"
       d="m 226.18327,203.19018 43.96394,-44.95627 1.66951,1.70721"
       id="path4140"
       inkscape:connector-curvature="0" />
  </g>
  <g
     inkscape:label="hanger"
     inkscape:groupmode="layer"
     id="layer1"
     style="display:inline">
    <path
       style="fill:#c14822;fill-opacity:1;fill-rule:evenodd;stroke:#000000;stroke-width:1px;stroke-linecap:butt;stroke-linejoin:miter;stroke-opacity:1"
       d="m 216,623.3622 0,-474 0,0 214.5,0 0,10.5 -201.5,0.5 0,462 1,0 z"
       id="path4138"
       inkscape:connector-curvature="0"
       sodipodi:nodetypes="ccccccccc" />
  </g>
  <g
     inkscape:groupmode="layer"
     id="layer6"
     inkscape:label="rope"
     style="display:inline">
    <path
       style="fill:none;fill-rule:evenodd;stroke:#0b0e00;stroke-width:3.125;stroke-linecap:butt;stroke-linejoin:miter;stroke-miterlimit:4;stroke-dasharray:none;stroke-opacity:1"
       d="m 392.5,147.3622 0,78"
       id="path4448"
       inkscape:connector-curvature="0" />
  </g>
  <g
     inkscape:groupmode="layer"
     id="layer4"
     inkscape:label="ground"
     style="display:inline">
    <path
       style="opacity:1;fill:#1fbb24;fill-opacity:1;stroke:#ffffff;stroke-width:0;stroke-linecap:round;stroke-miterlimit:4;stroke-dasharray:none;stroke-opacity:1"
       d="m 250.21289,622.36133 c -7.72028,-0.74135 0.66434,0.22313 0.89453,0 z"
       id="path4200"
       inkscape:connector-curvature="0"
       sodipodi:nodetypes="ccc" />
    <path
       style="opacity:1;fill:#1fbb24;fill-opacity:1;stroke:#ffffff;stroke-width:0;stroke-linecap:round;stroke-miterlimit:4;stroke-dasharray:none;stroke-opacity:1"
       d="m 250.59375,622.36133 -0.78711,0.62109 c 0.82199,-6.85743 1.30078,-0.62106 1.30078,-0.62106 -0.17121,2e-5 -0.34251,-2e-5 -0.51367,-3e-5 z"
       id="path4222"
       inkscape:connector-curvature="0"
       sodipodi:nodetypes="cccc" />
    <path
       style="opacity:1;fill:#1fbb24;fill-opacity:1;stroke:#ffffff;stroke-width:0;stroke-linecap:round;stroke-miterlimit:4;stroke-dasharray:none;stroke-opacity:1"
       d="m 247.04688,607.07227 c -0.34627,0.0792 -0.68664,0.17359 -1.02344,0.27734 0.22004,0.002 0.44011,7.9e-4 0.66015,0.002 l 0.36329,-0.27929 z"
       id="path4230"
       inkscape:connector-curvature="0" />
    <path
       style="fill:none;fill-rule:evenodd;stroke:#000000;stroke-width:0;stroke-linecap:butt;stroke-linejoin:miter;stroke-miterlimit:4;stroke-dasharray:none;stroke-opacity:1"
       d="m 193,624.3622 -7,-19 12,13 0,-15 12,17 2,-16 4,14 10,-11 3,11 14,-13 -0.5,19.25 15.5,-20.25 0,10 10,-4 -4,11 16,-7 -15,10 c -27.66667,0.33333 -55.33333,0.66667 -83,1 l -11,-11 19,6"
       id="path4420"
       inkscape:connector-curvature="0"
       sodipodi:nodetypes="cccccccccccccccccccc" />
    <path
       style="opacity:1;fill:#1fbb24;fill-opacity:1;stroke:#ffffff;stroke-width:0;stroke-linecap:round;stroke-miterlimit:4;stroke-dasharray:none;stroke-opacity:1"
       d="m 247.33891,615.08757 7.17228,-7.58965 0.31036,3.75 c 0.1707,2.0625 0.52266,3.75 0.78212,3.75 0.25946,0 2.08726,-0.675 4.06176,-1.5 1.9745,-0.825 3.73273,-1.5 3.90718,-1.5 0.17445,0 -0.38964,2.0744 -1.25353,4.60977 -1.32735,3.89556 3.89332,4.99903 5.0607,5.7586 0.85994,0.55953 -7.51979,0.58506 -13.54087,0.47988 l -18.17227,0.83105 z"
       id="path4422"
       inkscape:connector-curvature="0"
       sodipodi:nodetypes="ccssssssscc" />
    <path
       style="opacity:1;fill:#1fbb24;fill-opacity:1;stroke:#ffffff;stroke-width:0;stroke-linecap:round;stroke-miterlimit:4;stroke-dasharray:none;stroke-opacity:1"
       d="m 192.82602,621.05733 c -0.78597,-1.88108 -1.74178,-4.74524 -2.12402,-6.36478 -0.68696,-2.91062 -0.64155,-2.89314 3.9321,1.51358 l 4.62709,4.45821 c 0,-6.63078 -0.75,-8.01156 0,-13.89234 l 5.25,7.70051 c 2.8875,4.23527 5.5875,7.71736 6,7.73796 0.4125,0.0206 0.79485,-1.65005 0.84968,-3.71255 0.0548,-2.0625 0.42322,-4.875 0.81867,-6.25 0.68671,-2.38773 0.75026,-2.34282 1.41504,1 1.22691,6.16952 2.35748,6.93263 5.18528,3.5 l 2.47139,-3 0.005,3.75 c 0.005,3.45818 10.3654,-5.38784 10.3654,-2.75 0,5.86408 10.96962,8.48174 0,5.86408 2.16504,-0.0788 4.01029,-7.7314 7.50705,-10.26974 l 2.86751,7.70815 4.02766,0.97376 c 6.28374,1.68372 -3.17946,3.94053 -3.4326,4.20549 -0.25314,0.26496 -11.23235,0.65412 -24.39824,0.86479 l -23.93799,0.38304 -1.42903,-3.42016 z"
       id="path4424"
       inkscape:connector-curvature="0"
       sodipodi:nodetypes="cssccsscsssccsccccssccc" />
    <path
       style="opacity:1;fill:#1fbb24;fill-opacity:1;stroke:#ffffff;stroke-width:0;stroke-linecap:round;stroke-miterlimit:4;stroke-dasharray:none;stroke-opacity:1"
       d="m 182.70735,620.84764 c -1.89539,-2.00765 -2.74746,-3.40585 -1.89349,-3.1071 0.85397,0.29874 4.34147,1.32566 7.75,2.28205 7.43669,2.08663 8.44733,4.47533 1.89349,4.47533 -3.65636,0 -4.82228,-0.54915 -7.75,-3.65028 z"
       id="path4430"
       inkscape:connector-curvature="0" />
  </g>
  <g
     inkscape:groupmode="layer"
     id="layer7"
     inkscape:label="body"
     style="display:inline">
    <path
       style="fill:none;fill-rule:evenodd;stroke:#000000;stroke-width:3.125;stroke-linecap:butt;stroke-linejoin:miter;stroke-miterlimit:4;stroke-dasharray:none;stroke-opacity:1"
       d="m 393.15137,277.37317 0,106.06602"
       id="path4459"
       inkscape:connector-curvature="0"
       sodipodi:nodetypes="cc" />
  </g>
  <g
     inkscape:groupmode="layer"
     id="layer5"
     inkscape:label="head"
     style="display:inline">
    <ellipse
       style="opacity:1;fill:#ffffff;fill-opacity:1;stroke:#000405;stroke-width:3.125;stroke-linecap:round;stroke-miterlimit:4;stroke-dasharray:none;stroke-opacity:1"
       id="path4443"
       cx="393.15137"
       cy="250.50311"
       rx="26.911835"
       ry="28.326048" />
  </g>
  <g
     inkscape:groupmode="layer"
     id="layer8"
     inkscape:label="left arm"
     style="display:inline">
    <path
       style="fill:none;fill-rule:evenodd;stroke:#000000;stroke-width:3.125;stroke-linecap:butt;stroke-linejoin:miter;stroke-miterlimit:4;stroke-dasharray:none;stroke-opacity:1"
       d="m 392,296.3622 -48,54"
       id="path4462"
       inkscape:connector-curvature="0" />
  </g>
  <g
     inkscape:groupmode="layer"
     id="layer10"
     inkscape:label="left leg"
     style="display:inline">
    <path
       style="fill:none;fill-rule:evenodd;stroke:#000000;stroke-width:3.125;stroke-linecap:butt;stroke-linejoin:miter;stroke-miterlimit:4;stroke-dasharray:none;stroke-opacity:1"
       d="m 392.63376,382.6836 -52.26752,87.3572"
       id="path4462-6"
       inkscape:connector-curvature="0" />
  </g>
  <g
     inkscape:groupmode="layer"
     id="layer11"
     inkscape:label="right leg"
     style="display:inline">
    <path
       style="fill:none;fill-rule:evenodd;stroke:#000000;stroke-width:3.125;stroke-linecap:butt;stroke-linejoin:miter;stroke-miterlimit:4;stroke-dasharray:none;stroke-opacity:1"
       d="m 393.68536,382.67758 50.62928,87.36924"
       id="path4462-6-0"
       inkscape:connector-curvature="0" />
  </g>
  <g
     inkscape:groupmode="layer"
     id="layer9"
     inkscape:label="right arm"
     style="display:inline">
    <path
       style="fill:none;fill-rule:evenodd;stroke:#000000;stroke-width:3.125;stroke-linecap:butt;stroke-linejoin:miter;stroke-miterlimit:4;stroke-dasharray:none;stroke-opacity:1"
       d="m 392.8526,295.37689 46.2948,57.97062"
       id="path4462-5"
       inkscape:connector-curvature="0" />
  </g>
</svg>
